<svg xmlns="http://www.w3.org/2000/svg" xmlns:xlink="http://www.w3.org/1999/xlink" width="1500" zoomAndPan="magnify" viewBox="0 0 1125 1124.99995" height="1500" preserveAspectRatio="xMidYMid meet" version="1.2"><defs><clipPath id="bf88da8581"><path d="M 114 145 L 1055.109375 145 L 1055.109375 492 L 114 492 Z M 114 145 "/></clipPath><clipPath id="d5bd0b86e0"><path d="M 450 436 L 652 436 L 652 742 L 450 742 Z M 450 436 "/></clipPath><clipPath id="d8a7dba458"><path d="M 580.046875 436.480469 L 651.921875 470.933594 L 522.03125 741.894531 L 450.15625 707.441406 Z M 580.046875 436.480469 "/></clipPath></defs><g id="79669807a5"><g clip-rule="nonzero" clip-path="url(#bf88da8581)"><path style=" stroke:none;fill-rule:evenodd;fill:#5465ff;fill-opacity:1;" d="M 1055.148438 145.027344 L 392.660156 145.027344 C 69.566406 145.027344 116.59375 491.472656 116.59375 491.472656 C 211.738281 326.359375 444.308594 399.976562 674.449219 399.976562 C 957.894531 399.9375 1055.148438 171.703125 1055.148438 145.027344 Z M 1055.148438 145.027344 "/></g><path style=" stroke:none;fill-rule:evenodd;fill:#5465ff;fill-opacity:1;" d="M 878.238281 979.886719 L 340.328125 979.886719 C 133.78125 979.886719 113.511719 805.570312 114.199219 731.382812 C 113.632812 668.101562 127.742188 535.175781 250.695312 488.960938 C 365.015625 461.148438 520.277344 494.148438 674.40625 494.148438 C 754.550781 494.148438 820.710938 496.582031 909.898438 472.703125 C 909.898438 495.242188 827.644531 688.289062 587.9375 688.289062 C 460.117188 688.289062 331.40625 661.453125 235.332031 682.574219 C 172.777344 696.316406 184.859375 769.285156 235.332031 779.378906 C 327.03125 797.746094 448.441406 772.894531 569.046875 772.894531 C 799.1875 772.894531 878.15625 958.238281 878.15625 979.886719 Z M 878.238281 979.886719 "/><g clip-rule="nonzero" clip-path="url(#d5bd0b86e0)"><g clip-rule="nonzero" clip-path="url(#d8a7dba458)"><path style=" stroke:none;fill-rule:nonzero;fill:#ffffff;fill-opacity:1;" d="M 580.046875 436.480469 L 651.921875 470.933594 L 522.042969 741.871094 L 450.167969 707.417969 Z M 580.046875 436.480469 "/></g></g></g></svg>